<svg width="106" height="73" viewBox="0 0 106 73" fill="none" xmlns="http://www.w3.org/2000/svg">
<path d="M42.8697 31.3231C41.1942 34.4163 39.4156 37.8788 37.6317 41.3515C37.4745 41.6573 37.3174 41.9632 37.1603 42.269C35.2173 46.0498 33.2782 49.8057 31.4625 53.088L31.4624 53.0879L31.4569 53.0984C31.0658 53.8465 30.7583 54.1353 30.5651 54.2256C30.4404 54.2839 30.3142 54.2839 30.0975 54.116C29.8582 53.9307 29.6012 53.6015 29.3164 53.165C29.1776 52.9524 29.0396 52.7262 28.8984 52.4935L28.8633 52.4356C28.7362 52.2262 28.6063 52.0119 28.476 51.8081L17.2829 32.8498C16.3054 31.122 15.5804 30.0199 15.0463 29.4488C14.9098 29.3028 14.7732 29.1776 14.6359 29.0834C14.5029 28.9921 14.3362 28.9068 14.1445 28.8887C13.9297 28.8684 13.7279 28.9371 13.5716 29.0794C13.4323 29.2062 13.3539 29.3681 13.306 29.5072C13.211 29.7829 13.1789 30.1427 13.1734 30.5239C13.1677 30.9172 13.1906 31.3836 13.2311 31.8988C13.3018 32.8001 13.4292 33.8848 13.5651 35.0412C13.5844 35.2055 13.6039 35.3712 13.6234 35.538L13.6242 35.5454L13.6253 35.5527C14.3255 40.3138 15.1716 45.264 16.9443 49.8019L16.9442 49.8019L16.9463 49.8071C17.7709 51.8505 18.8 53.4727 19.6605 54.7425C19.8195 54.9772 19.9705 55.1966 20.1129 55.4035C20.3609 55.7639 20.5827 56.0861 20.7746 56.384C21.0791 56.8567 21.2649 57.2042 21.339 57.4653C21.4062 57.7021 21.3609 57.7786 21.3131 57.8315C21.2218 57.9323 20.9822 58.0756 20.4157 58.1972C19.3031 58.4361 17.3246 58.5174 14.0648 58.5001C13.8722 58.4897 13.6747 58.4805 13.4738 58.4711C12.2838 58.4155 10.9748 58.3543 9.88134 58.0228C9.25015 57.8314 8.73664 57.5615 8.37615 57.1867C8.03166 56.8285 7.79763 56.3447 7.76123 55.654C8.95064 44.1557 9.15989 31.122 8.17865 19.413C8.13114 18.6801 8.03421 17.9889 7.94547 17.3561C7.90152 17.0427 7.85958 16.7436 7.82664 16.4609C7.72564 15.5939 7.69686 14.8122 7.87949 13.9963C8.27421 12.9982 9.3019 12.5362 10.7228 12.3416C11.4252 12.2455 12.1779 12.2215 12.9176 12.2139C13.1092 12.2119 13.3014 12.2111 13.4917 12.2102C14.0169 12.2079 14.5281 12.2056 14.9745 12.18C15.8155 12.1799 16.6544 12.1756 17.4917 12.1712C20.0086 12.1581 22.512 12.1451 25.0192 12.2496L25.0192 12.2496L25.0244 12.2498C27.2162 12.3182 28.9473 12.7271 30.2823 14.0594C31.671 15.5171 32.7822 17.3072 33.8563 19.1584C34.0373 19.4704 34.2174 19.7845 34.3978 20.099C35.2768 21.6316 36.1603 23.1723 37.1655 24.504C37.8483 25.4792 38.5941 26.0026 39.4165 25.9662C40.2073 25.9312 40.8572 25.3804 41.3673 24.7655C41.8919 24.1332 42.3623 23.3181 42.7753 22.546C42.9284 22.2596 43.0722 21.9822 43.2088 21.7188C43.4516 21.2504 43.6715 20.8264 43.8799 20.4753L43.8886 20.4606L43.8963 20.4454L43.9426 20.3538C44.817 18.6219 45.5157 17.2382 46.2019 16.1262C46.8976 14.9988 47.5611 14.1837 48.3447 13.593C49.8992 12.4212 52.0469 12.0404 56.2355 12.1795C57.0662 12.233 58.1462 12.2102 59.3025 12.1831L59.4557 12.1795C60.5825 12.153 61.7884 12.1246 62.9589 12.1536C64.1848 12.1839 65.3484 12.2769 66.3201 12.4929C67.2816 12.7067 67.983 13.0258 68.3905 13.4546C68.877 14.251 68.9339 15.104 68.835 16.0927C68.7957 16.4852 68.7341 16.8824 68.6689 17.3029C68.6496 17.4272 68.63 17.5535 68.6106 17.6823C68.5274 18.2338 68.4498 18.8178 68.4306 19.4217C67.4499 31.2714 67.6597 44.4464 68.9199 56.086C68.9154 56.6237 68.7698 57.0035 68.5519 57.2855C68.3256 57.5784 67.9914 57.804 67.5572 57.9746C66.6714 58.3226 65.4995 58.3947 64.3698 58.4301L56.75 58.5H56.7479H50.6703C50.4359 58.4903 50.2052 58.4833 49.9774 58.4764C49.3654 58.4578 48.7745 58.4399 48.1888 58.3721C47.3971 58.2804 46.6679 58.1013 46.015 57.7298C45.6168 57.4833 45.3784 57.1022 45.2528 56.5833C45.1235 56.0488 45.1221 55.3963 45.1903 54.6719C45.2458 54.0824 45.3435 53.4774 45.4404 52.8773C45.4624 52.7411 45.4843 52.6051 45.5057 52.4696C45.6166 51.7682 45.7155 51.066 45.7006 50.4755C46.1204 45.8397 46.19 40.7921 46.19 36.11V36.1029L46.1898 36.0957C46.1795 35.7336 46.1831 35.2673 46.1873 34.7402C46.1901 34.3854 46.1931 34.003 46.1922 33.6064C46.19 32.6441 46.1643 31.6132 46.0444 30.8203C45.9853 30.4293 45.8974 30.0523 45.7537 29.7627C45.6161 29.4855 45.3386 29.1292 44.858 29.1531C44.4566 29.1731 44.1218 29.4658 43.8519 29.7843C43.5591 30.1299 43.2348 30.6376 42.8697 31.3231ZM42.8697 31.3231C42.8699 31.3227 42.8701 31.3223 42.8704 31.3219L43.31 31.56L42.8687 31.325C42.869 31.3244 42.8694 31.3237 42.8697 31.3231ZM69.2131 12.8836L69.1898 12.8466L69.1605 12.8142C68.5483 12.1387 67.5889 11.7506 66.5371 11.5168C65.4723 11.28 64.234 11.1848 62.9836 11.1539C61.7883 11.1243 60.5605 11.1532 59.4393 11.1796L59.2791 11.1834C58.105 11.2109 57.0708 11.2318 56.2925 11.1811L56.2846 11.1805L56.2767 11.1803C52.0704 11.0401 49.5998 11.3946 47.7428 12.7945C46.8201 13.49 46.0793 14.4206 45.3509 15.601C44.642 16.7499 43.9265 18.1668 43.0654 19.8724L43.0113 19.9796C42.7915 20.3512 42.5506 20.8155 42.3006 21.2975C42.1669 21.5552 42.0306 21.818 41.8935 22.0743C41.484 22.84 41.0531 23.578 40.5977 24.127C40.1278 24.6933 39.719 24.9519 39.3723 24.9672C39.0594 24.981 38.5907 24.7986 37.98 23.9238L37.9746 23.9161L37.9689 23.9086C37.0033 22.6305 36.156 21.1537 35.2755 19.6191C35.0926 19.3003 34.9083 18.9791 34.7212 18.6566C33.6438 16.7996 32.4813 14.9165 31.0019 13.365L31.002 13.3649L30.9936 13.3564C29.3897 11.7526 27.3431 11.322 25.0582 11.2503C22.5263 11.1449 19.9904 11.1581 17.4683 11.1713C16.6304 11.1756 15.7941 11.18 14.96 11.18H14.9453L14.9306 11.1809C14.51 11.2056 14.0345 11.2077 13.5139 11.21C13.3179 11.2109 13.1156 11.2118 12.9074 11.2139C12.1596 11.2216 11.3548 11.2458 10.5872 11.3509C9.08255 11.5569 7.52666 12.1024 6.93236 13.6731L6.9204 13.7046L6.9128 13.7376C6.68392 14.7294 6.72576 15.653 6.83336 16.5766C6.87162 16.905 6.91681 17.226 6.96242 17.5499C7.0484 18.1605 7.13583 18.7815 7.18104 19.4822L7.18094 19.4822L7.18175 19.4918C8.15898 31.1487 7.94966 44.1374 6.76267 55.5884L6.7589 55.6248L6.76045 55.6613C6.80026 56.5967 7.12417 57.3275 7.65541 57.8799C8.17649 58.4216 8.8661 58.7599 9.59116 58.9797C10.8157 59.351 12.2719 59.4177 13.4528 59.4717C13.6515 59.4808 13.8423 59.4895 14.023 59.4993L14.0352 59.4999L14.0473 59.5C17.2903 59.5174 19.3858 59.4411 20.6256 59.175C21.2359 59.0439 21.7422 58.8476 22.0546 58.5025C22.4103 58.1093 22.4263 57.6335 22.301 57.1922C22.1826 56.7752 21.9221 56.3188 21.6153 55.8424C21.4159 55.5329 21.1787 55.1883 20.9236 54.8175C20.7829 54.6129 20.6366 54.4004 20.4883 54.1815C19.6429 52.9341 18.66 51.3809 17.8748 49.4356C16.1489 45.0165 15.3153 40.1703 14.6158 35.4146C14.5964 35.2493 14.5772 35.0857 14.5582 34.924C14.422 33.764 14.2971 32.701 14.228 31.8206C14.1886 31.3186 14.1683 30.887 14.1733 30.5382C14.1764 30.3189 14.1896 30.1492 14.2086 30.0234C14.2409 30.054 14.2767 30.0899 14.3159 30.1318C14.7592 30.6059 15.4335 31.6113 16.4148 33.3462L16.4147 33.3462L16.4194 33.3542L27.6194 52.3242L27.624 52.332L27.6289 52.3395C27.754 52.5351 27.8795 52.7419 28.0095 52.9562L28.0435 53.0123C28.1842 53.2442 28.3301 53.4834 28.4789 53.7115C28.7694 54.1566 29.103 54.6106 29.4851 54.9065C29.8895 55.2198 30.4153 55.3993 30.9883 55.1316C31.4918 54.8965 31.9272 54.3559 32.3404 53.5669C34.1638 50.2704 36.1087 46.5032 38.0497 42.726C38.2066 42.4208 38.3634 42.1155 38.5202 41.8104C40.3056 38.3347 42.0795 34.8815 43.7497 31.7981L43.7513 31.795C44.1033 31.1339 44.389 30.6973 44.6149 30.4307C44.7229 30.3032 44.8015 30.2334 44.852 30.1954C44.8539 30.1992 44.8559 30.2031 44.8579 30.2073C44.9313 30.3552 45.001 30.6082 45.0556 30.9697C45.1632 31.6818 45.19 32.6459 45.1922 33.6086C45.193 33.9769 45.1902 34.3479 45.1875 34.7003C45.1833 35.2431 45.1795 35.7416 45.19 36.1171C45.1899 40.8029 45.1197 45.8211 44.7021 50.4147L44.6993 50.4454L44.7003 50.4761C44.716 50.9642 44.6327 51.5882 44.518 52.3135C44.4978 52.4415 44.4766 52.5723 44.4552 52.7052C44.3579 53.3068 44.2536 53.9523 44.1947 54.5781C44.1229 55.3412 44.1127 56.1237 44.2809 56.8185C44.4522 57.5263 44.8157 58.1677 45.4987 58.5863L45.5053 58.5903L45.5119 58.5941C46.3272 59.06 47.2057 59.2649 48.0737 59.3654C48.7051 59.4385 49.3598 59.4584 49.9857 59.4773C50.2079 59.4841 50.4265 59.4907 50.6392 59.4996L50.6496 59.5H50.66L56.75 59.5L56.7546 59.5L64.3846 59.43V59.4301L64.3956 59.4298C65.5042 59.3951 66.8501 59.3268 67.9228 58.9054C68.4686 58.691 68.9744 58.3741 69.3431 57.897C69.7167 57.4135 69.92 56.8035 69.92 56.06V56.033L69.9171 56.0061C68.6604 44.4168 68.451 31.2887 69.4283 19.4913L69.4294 19.4782L69.4298 19.4651C69.4463 18.9187 69.5169 18.3785 69.5994 17.8314C69.6173 17.713 69.6358 17.5934 69.6545 17.4733C69.7205 17.0479 69.7878 16.6145 69.83 16.1922C69.9396 15.0968 69.8948 13.9663 69.2131 12.8836ZM44.8037 30.1203C44.8037 30.1198 44.8058 30.1215 44.8099 30.1266C44.8057 30.1232 44.8037 30.1207 44.8037 30.1203ZM96.9902 51.4048L96.9909 51.3948L96.9912 51.3848C97.0964 47.8436 97.0789 44.1814 97.0614 40.5121L97.0614 40.5001C97.0439 36.8241 97.0265 33.1406 97.1311 29.546C97.1704 28.4202 97.1976 27.3706 97.2233 26.3758C97.3359 22.021 97.4213 18.7168 98.378 14.6649L98.3826 14.6456L98.3856 14.626C98.4159 14.4292 98.4693 14.2128 98.5306 13.9641L98.5344 13.949C98.5947 13.7042 98.6621 13.4293 98.7012 13.1607C98.7759 12.6469 98.7767 11.9579 98.2038 11.4996L98.1811 11.4814L98.1564 11.466C97.759 11.2176 97.2776 11.1635 96.8816 11.1455C96.718 11.1381 96.5499 11.1366 96.3944 11.1352C96.3563 11.1348 96.319 11.1345 96.2827 11.1341C96.0911 11.1319 95.9223 11.1276 95.7712 11.1125L95.7432 11.1097L95.7151 11.11C93.3983 11.1394 90.1795 11.1315 86.7444 11.1232C82.0382 11.1118 76.926 11.0994 73.1707 11.1801L73.1568 11.1804L73.1431 11.1815C72.5749 11.2252 72.1287 11.4503 71.8886 11.8936C71.6737 12.2906 71.6852 12.761 71.7413 13.1586C71.7967 13.5512 71.9126 13.9738 72.016 14.3508L72.0298 14.401C72.142 14.8104 72.2342 15.1582 72.2642 15.4423L72.266 15.4596L72.269 15.4766C73.3959 21.8822 73.3585 29.5075 73.3234 36.6717C73.3174 37.8985 73.3114 39.1118 73.3114 40.3031C73.2673 41.952 73.2416 43.5623 73.2164 45.139C73.1212 51.0959 73.0337 56.5741 71.9909 61.8429L71.9908 61.8429L71.989 61.8531C71.8706 62.5244 71.9306 63.103 72.1712 63.5827C72.4125 64.0638 72.807 64.389 73.2529 64.6041C74.116 65.0204 75.2574 65.0648 76.2083 65.0297C79.3665 64.9233 82.6659 64.3736 85.6062 63.4587C88.535 62.5473 91.1467 61.2612 92.9022 59.6551C95.3173 57.6022 96.7717 54.5369 96.9902 51.4048ZM92.2479 58.8987L92.2406 58.9049L92.2336 58.9114C90.629 60.3822 88.1689 61.6139 85.3091 62.5038C82.457 63.3914 79.2463 63.9267 76.1746 64.0303L76.1729 64.0303C75.2341 64.0651 74.3113 64.0043 73.6874 63.7034C73.3896 63.5597 73.1847 63.373 73.0651 63.1344C72.9451 62.8952 72.8827 62.5478 72.9729 62.0318C74.0339 56.6676 74.1228 51.0746 74.2176 45.1065C74.2425 43.5389 74.2678 41.9454 74.3112 40.3234L74.3114 40.3234V40.31C74.3114 39.1278 74.3174 37.9197 74.3235 36.6948C74.3592 29.5436 74.3977 21.8189 73.2567 15.3197C73.2149 14.9433 73.0992 14.5197 72.9943 14.1368L72.9885 14.1159C72.8787 13.715 72.7778 13.3468 72.7315 13.0189C72.6826 12.6727 72.7116 12.4738 72.768 12.3698C72.7987 12.313 72.8759 12.2075 73.2068 12.1796C76.9672 12.099 82.0255 12.1116 86.7018 12.1232C90.126 12.1317 93.3454 12.1397 95.7006 12.1103C95.8906 12.1278 96.0873 12.1319 96.2713 12.134C96.313 12.1345 96.3539 12.1349 96.3942 12.1352C96.5478 12.1366 96.6926 12.138 96.8362 12.1445C97.1904 12.1606 97.4366 12.2071 97.5998 12.2983C97.7136 12.4037 97.7732 12.5932 97.7116 13.0168C97.6807 13.2294 97.6256 13.4577 97.5635 13.7095L97.5549 13.7442C97.4991 13.9702 97.438 14.2178 97.4004 14.4538C96.4221 18.6061 96.3343 22.0239 96.2223 26.3839C96.1969 27.3719 96.1702 28.4083 96.1317 29.5126L96.1316 29.5154C96.0263 33.1304 96.0439 36.8314 96.0614 40.5049V40.5073C96.0789 44.1796 96.0963 47.8241 95.9919 51.3451C95.7883 54.2264 94.4459 57.0338 92.2479 58.8987ZM0.5 0.5H105.5V72.5H0.5V0.5Z" stroke="#4A5C43"/>
</svg>
